<?xml version="1.0" standalone="no"?>
<!DOCTYPE svg PUBLIC "-//W3C//DTD SVG 20010904//EN"
 "http://www.w3.org/TR/2001/REC-SVG-20010904/DTD/svg10.dtd">
<svg version="1.0" xmlns="http://www.w3.org/2000/svg"
 width="512.000000pt" height="512.000000pt" viewBox="0 0 512.000000 512.000000"
 preserveAspectRatio="xMidYMid meet">
<metadata>
Created by potrace 1.14, written by Peter Selinger 2001-2017
</metadata>
<g transform="translate(0.000000,512.000000) scale(0.100000,-0.100000)"
fill="#000000" stroke="none">
<path d="M166 4603 c15 -27 31 -52 35 -58 4 -5 16 -27 28 -48 12 -21 56 -98
98 -170 197 -341 253 -439 253 -443 0 -3 9 -17 19 -32 16 -23 466 -800 529
-913 16 -29 90 -155 122 -209 22 -36 125 -217 137 -242 8 -15 18 -30 22 -32 6
-4 182 288 247 409 6 11 59 102 117 203 59 101 107 188 107 193 0 5 4 9 9 9 5
0 11 8 14 18 3 9 19 40 35 67 143 243 734 1268 739 1282 4 11 -223 13 -1266
13 l-1272 0 27 -47z"/>
<path d="M3147 4643 c-3 -5 -15 -26 -27 -48 -12 -22 -81 -141 -153 -265 -158
-272 -192 -331 -225 -390 -13 -25 -46 -81 -72 -125 -26 -44 -124 -213 -217
-375 -94 -162 -203 -351 -243 -420 -40 -69 -84 -145 -98 -170 -14 -25 -73
-128 -132 -230 -276 -475 -331 -574 -326 -586 3 -7 40 -73 82 -146 42 -73 86
-149 97 -168 11 -19 31 -55 45 -80 13 -25 28 -49 32 -55 4 -5 60 -102 125
-215 109 -190 169 -293 320 -555 67 -116 79 -137 130 -225 21 -36 44 -77 52
-92 8 -16 18 -28 22 -28 7 0 42 58 127 208 30 54 347 602 409 707 29 50 65
113 80 140 16 28 38 66 50 85 12 19 25 42 28 50 4 8 17 31 28 50 20 34 340
587 378 653 22 38 130 225 276 477 59 102 119 205 133 230 13 25 39 70 57 100
18 30 83 143 145 250 62 107 129 224 150 260 78 133 334 577 358 620 14 25 45
78 69 118 24 41 43 75 43 78 0 2 19 34 41 71 23 38 43 71 46 76 2 4 -408 7
-911 7 -503 0 -917 -3 -919 -7z"/>
</g>
</svg>
